<svg width="260" height="260" viewBox="0 0 260 260" fill="none" xmlns="http://www.w3.org/2000/svg">
<g clip-path="url(#clip0_1964_20248)">
<path d="M189.738 208.83C200.13 196.604 205.831 181.079 205.831 165.035V0L173.313 14.7787C156.832 22.2702 146.247 38.7064 146.247 56.8109V97.5007H113.75V56.8109C113.75 38.7064 103.165 22.2702 86.6847 14.7787L54.166 0V165.035C54.166 181.079 59.8676 196.604 70.2596 208.83L113.75 260V140.837H146.247V260L189.738 208.83Z" fill="#003594"/>
<path fill-rule="evenodd" clip-rule="evenodd" d="M32.5021 27.0822V161.864C32.5021 178.648 38.5627 194.686 50.789 206.183L103.119 255.37L35.8169 211.852C13.2318 194.482 0 167.61 0 139.119V10.834L32.5021 27.0822ZM227.507 27.0823L260.009 10.834V139.119C260.009 167.61 246.778 194.488 224.192 211.857L156.89 255.376L209.22 206.189C221.452 194.692 227.507 178.648 227.507 161.864V27.0823Z" fill="#FFC72C"/>
</g>
<defs>
<clipPath id="clip0_1964_20248">
<rect width="260" height="260" fill="white"/>
</clipPath>
</defs>
</svg>
